#!OML:ASF F:\VICON\USERDATA\INSTALL\rory3\rory3.ASF
:FULLY-SPECIFIED
:DEGREES
999
root 4.72057 17.3841 2.65021 5.8941 -12.1866 -5.58264
lowerback 11.4803 0.032873 4.10332
upperback 4.09821 0.510457 1.40345
thorax -2.12698 0.255712 -0.918438
lowerneck -12.0739 -0.381836 -2.38551
upperneck 35.6397 0.197235 -0.721529
head 14.2072 -0.386027 0.146241
rclavicle 1.51076e-014 2.57426e-014
rhumerus -31.9235 -3.85464 -16.6417
rradius 34.99
rwrist 9.90942
rhand -21.1064 -44.5383
rfingers 7.12502
rthumb 5.27166 -74.4527
lclavicle 1.51076e-014 2.57426e-014
lhumerus -29.6646 2.54009 11.0084
lradius 29.2674
lwrist 10.7461
lhand -24.5921 -31.3582
lfingers 7.12502
lthumb 1.90553 -1.38692
rfemur -97.9793 1.25138 28.4886
rtibia 98.3717
rfoot 47.2353 4.37965
rtoes -6.97228
lfemur -18.0236 0.680398 -24.0908
ltibia 30.0315
lfoot -14.3816 8.68261
ltoes 11.0613
1000
root 4.71956 17.3806 2.64861 5.91346 -12.1474 -5.65984
lowerback 11.472 0.0211733 4.19628
upperback 4.17284 0.501536 1.40527
thorax -2.04379 0.253888 -0.967229
lowerneck -12.2775 -0.374724 -2.33037
upperneck 35.6851 0.20663 -0.737201
head 14.2742 -0.377435 0.131109
rclavicle 2.83268e-015 -2.82274e-014
rhumerus -31.8707 -4.06213 -16.682
rradius 34.8781
rwrist 10.0422
rhand -21.3523 -44.2636
rfingers 7.12502
rthumb 5.03414 -74.1838
lclavicle 2.83268e-015 -2.82274e-014
lhumerus -29.5473 2.70942 10.969
lradius 29.3228
lwrist 10.7366
lhand -24.3807 -30.9516
lfingers 7.12502
lthumb 2.1097 -0.982274
rfemur -97.9876 1.2588 28.5711
rtibia 98.3559
rfoot 47.2679 4.35977
rtoes -7.05267
lfemur -18.0357 0.688752 -24.0122
ltibia 30.0846
lfoot -14.3256 8.77376
ltoes 8.41126
1001
root 4.72078 17.3853 2.64708 5.98233 -12.1676 -5.76471
lowerback 11.4359 0.0147523 4.32873
upperback 4.20035 0.504345 1.4157
thorax -1.99364 0.257083 -1.03076
lowerneck -12.3917 -0.366729 -2.3184
upperneck 35.7162 0.226426 -0.755907
head 14.3144 -0.370465 0.12412
rclavicle -9.49197e-015 -5.96354e-015
rhumerus -31.8168 -4.21341 -16.7059
rradius 34.7761
rwrist 10.1091
rhand -21.3458 -44.2754
rfingers 7.12502
rthumb 5.04049 -74.1955
lclavicle -9.49197e-015 -5.96354e-015
lhumerus -29.5277 2.87154 10.9133
lradius 29.2995
lwrist 10.5105
lhand -24.7063 -31.0249
lfingers 7.12502
lthumb 1.79524 -1.05266
rfemur -97.9537 1.30863 28.6832
rtibia 98.2793
rfoot 47.2686 4.35875
rtoes -7.1186
lfemur -18.1767 0.608135 -23.8706
ltibia 30.1401
lfoot -14.3553 8.72054
ltoes 8.88922
1002
root 4.72259 17.3943 2.64779 6.0364 -12.2068 -5.91432
lowerback 11.4337 0.0163749 4.46947
upperback 4.16037 0.524564 1.46764
thorax -2.03175 0.266352 -1.05847
lowerneck -12.334 -0.357553 -2.34672
upperneck 35.7581 0.251704 -0.772661
head 14.3207 -0.366299 0.126081
rclavicle -2.52208e-014 3.47873e-015
rhumerus -31.8387 -4.14457 -16.6935
rradius 34.8094
rwrist 10.086
rhand -20.9821 -44.6572
rfingers 7.12502
rthumb 5.39168 -74.5686
lclavicle -2.52208e-014 3.47873e-015
lhumerus -29.5938 2.75387 10.9435
lradius 29.2914
lwrist 10.3438
lhand -25.3085 -31.5012
lfingers 7.12502
lthumb 1.21357 -1.52486
rfemur -97.8442 1.37784 28.8334
rtibia 98.1811
rfoot 47.2745 4.20057
rtoes -7.04064
lfemur -18.3233 0.543373 -23.6638
ltibia 30.1888
lfoot -14.4236 8.52472
ltoes 11.8711
1003
root 4.72796 17.4002 2.65315 5.96038 -12.2421 -5.91436
lowerback 11.4823 0.0188866 4.53009
upperback 4.16484 0.53698 1.46641
thorax -2.05206 0.272437 -1.0956
lowerneck -12.2905 -0.327272 -2.32904
upperneck 35.7943 0.300888 -0.802192
head 14.3273 -0.347182 0.118413
rclavicle 1.26725e-014 9.93923e-017
rhumerus -31.8605 -4.08458 -16.6877
rradius 34.8795
rwrist 10.0326
rhand -20.6641 -44.9709
rfingers 7.12502
rthumb 5.69867 -74.8742
lclavicle 1.26725e-014 9.93923e-017
lhumerus -29.663 2.50321 11.0257
lradius 29.3342
lwrist 10.5823
lhand -25.4544 -30.9001
lfingers 7.12502
lthumb 1.07273 -0.923049
rfemur -97.6969 1.34394 28.8271
rtibia 98.143
rfoot 47.2247 4.35188
rtoes -7.24459
lfemur -18.2979 0.489887 -23.6642
ltibia 30.2698
lfoot -14.5138 8.47474
ltoes 13.2773
1004
root 4.73091 17.4032 2.6555 5.94439 -12.2925 -5.93676
lowerback 11.5281 0.0217036 4.57094
upperback 4.15689 0.548164 1.46858
thorax -2.08418 0.277394 -1.11802
lowerneck -12.2932 -0.311446 -2.30464
upperneck 35.8041 0.333025 -0.845384
head 14.3324 -0.33615 0.101352
rclavicle 1.38404e-014 2.15681e-014
rhumerus -31.7786 -4.32548 -16.6407
rradius 34.752
rwrist 10.258
rhand -20.7005 -44.717
rfingers 7.12502
rthumb 5.66352 -74.6213
lclavicle 1.38404e-014 2.15681e-014
lhumerus -29.7699 2.34971 11.0661
lradius 29.368
lwrist 10.7808
lhand -25.364 -30.7325
lfingers 7.12502
lthumb 1.16006 -0.755951
rfemur -97.6095 1.37364 28.835
rtibia 98.0885
rfoot 47.1556 4.45189
rtoes -7.51408
lfemur -18.2716 0.509388 -23.6593
ltibia 30.3388
lfoot -14.6037 8.47155
ltoes 13.8813
1005
root 4.73048 17.4035 2.65425 6.04917 -12.3666 -6.03607
lowerback 11.5486 0.038916 4.61156
upperback 4.0572 0.581953 1.50373
thorax -2.19753 0.290745 -1.1092
lowerneck -12.1788 -0.322475 -2.36339
upperneck 35.8206 0.311636 -0.800182
head 14.3141 -0.347544 0.126884
rclavicle 2.11209e-014 1.58034e-014
rhumerus -31.7652 -4.42054 -16.6009
rradius 34.6797
rwrist 10.495
rhand -20.9029 -44.3865
rfingers 7.12502
rthumb 5.46809 -74.296
lclavicle 2.11209e-014 1.58034e-014
lhumerus -29.8336 2.25043 11.07
lradius 29.484
lwrist 10.7655
lhand -25.1866 -31.0593
lfingers 7.12502
lthumb 1.33137 -1.08367
rfemur -97.6258 1.50212 28.9177
rtibia 98.0039
rfoot 47.1491 4.29055
rtoes -7.60747
lfemur -18.3311 0.603075 -23.5612
ltibia 30.3448
lfoot -14.7099 8.40201
ltoes 14.9759
1006
root 4.73062 17.3993 2.65694 6.07305 -12.4126 -6.02083
lowerback 11.5659 0.0583488 4.58272
upperback 4.00921 0.607536 1.50099
thorax -2.25615 0.301644 -1.09955
lowerneck -12.095 -0.337853 -2.4315
upperneck 35.8317 0.272821 -0.712874
head 14.3001 -0.3618 0.168627
rclavicle -2.08475e-014 -2.98177e-016
rhumerus -31.8247 -4.39193 -16.6002
rradius 34.6981
rwrist 10.6207
rhand -20.9604 -44.2082
rfingers 7.12502
rthumb 5.41255 -74.119
lclavicle -2.08475e-014 -2.98177e-016
lhumerus -29.7951 2.15637 11.1006
lradius 29.4584
lwrist 10.6428
lhand -24.9891 -32.7044
lfingers 7.12502
lthumb 1.52212 -2.73011
rfemur -97.6554 1.54205 28.8823
rtibia 97.9773
rfoot 47.6626 1.1737
rtoes -3.85202
lfemur -18.2895 0.724909 -23.6221
ltibia 30.353
lfoot -14.7821 8.47608
ltoes 14.9057
1007
root 4.72927 17.3928 2.66016 6.02454 -12.4049 -5.96597
lowerback 11.5882 0.0635732 4.52668
upperback 4.03195 0.608252 1.49001
thorax -2.24524 0.302316 -1.07968
lowerneck -12.1126 -0.350771 -2.43974
upperneck 35.8377 0.25561 -0.709216
head 14.3071 -0.369792 0.168921
rclavicle -1.49834e-014 8.74653e-015
rhumerus -31.8377 -4.4143 -16.6177
rradius 34.6516
rwrist 10.6894
rhand -20.7857 -44.0892
rfingers 7.12502
rthumb 5.58122 -73.9957
lclavicle -1.49834e-014 8.74653e-015
lhumerus -29.8219 2.11354 11.1337
lradius 29.3765
lwrist 10.5091
lhand -24.9492 -34.2236
lfingers 7.12502
lthumb 1.56067 -4.2496
rfemur -97.6564 1.52252 28.8096
rtibia 97.981
rfoot 47.0804 3.94645
rtoes -6.84459
lfemur -18.1711 0.849855 -23.7383
ltibia 30.3925
lfoot -14.7359 8.65424
ltoes 13.5631
1008
root 4.72823 17.3891 2.65906 6.07159 -12.413 -5.9442
lowerback 11.5211 0.0739229 4.48821
upperback 4.03352 0.613874 1.49728
thorax -2.20739 0.305714 -1.05081
lowerneck -12.0547 -0.344772 -2.41368
upperneck 35.7666 0.284112 -0.790336
head 14.2612 -0.363627 0.135996
rclavicle 6.5102e-015 -9.93923e-015
rhumerus -31.8254 -4.37022 -16.6537
rradius 34.6657
rwrist 10.616
rhand -20.8909 -44.1191
rfingers 7.12502
rthumb 5.4797 -74.0283
lclavicle 6.5102e-015 -9.93923e-015
lhumerus -29.9387 2.12427 11.1489
lradius 29.4457
lwrist 10.5089
lhand -24.9405 -34.2958
lfingers 7.12502
lthumb 1.56904 -4.32179
rfemur -97.7162 1.55999 28.7724
rtibia 97.9264
rfoot 47.4667 2.56328
rtoes -5.62146
lfemur -18.2484 0.941118 -23.7558
ltibia 30.4117
lfoot -14.727 8.53048
ltoes 13.437
1009
root 4.72941 17.393 2.65816 6.08858 -12.4348 -5.94512
lowerback 11.4849 0.0887122 4.4876
upperback 4.04765 0.630987 1.51361
thorax -2.17222 0.314937 -1.03542
lowerneck -12.0219 -0.352713 -2.44158
upperneck 35.7279 0.285186 -0.807841
head 14.2362 -0.368414 0.134235
rclavicle -2.73826e-014 2.10712e-014
rhumerus -31.7719 -4.39077 -16.6476
rradius 34.6249
rwrist 10.5435
rhand -20.9665 -44.2109
rfingers 7.12502
rthumb 5.40666 -74.1219
lclavicle -2.73826e-014 2.10712e-014
lhumerus -29.9815 2.06344 11.2105
lradius 29.5125
lwrist 10.6105
lhand -24.8545 -34.4704
lfingers 7.12502
lthumb 1.65212 -4.49707
rfemur -97.6629 1.58999 28.7644
rtibia 97.8207
rfoot 47.5552 2.5749
rtoes -5.63133
lfemur -18.3698 0.940113 -23.6968
ltibia 30.4187
lfoot -14.8243 8.16184
ltoes 14.731
